<svg version="1" xmlns="http://www.w3.org/2000/svg" width="518.667" height="518.667" viewBox="0 0 389.000000 389.000000"><path d="M152 106.3l-5.6 2.8-9.9 18.9c-5.5 10.4-10.3 19.4-10.6 20-.8 1.6-48 1.4-49-.2-.4-.7-3.5.9-8.4 4.6l-7.8 5.6H82.4l-6.3 4.4c-3.5 2.5-6.6 4.7-6.9 5.1-.3.3 9.7.5 22.2.5 12.5-.1 23 .1 23.3.4.3.2-1.4 4-3.8 8.3-7.5 13.6-13.7 25.3-23.7 45-5.3 10.6-9.9 18.9-10.3 18.5-.3-.4-3-6.1-5.9-12.7-13.1-29.8-26.2-52.4-36.7-63.6-2.3-2.5-2.9-2.6-10.2-2.4-4.3.1-9 .9-10.4 1.7l-2.7 1.4 5.4 3.9c4.7 3.4 5.2 4.1 3.8 5.1-1.4 1-1 1.5 2.4 3.6 2.1 1.4 4.7 3.4 5.6 4.4C31.7 185.7 50 223 55.6 238c3.5 9.1 5.4 18.2 5.7 27.3.4 8.3 1.1 9.7 5.5 9.7 1.9 0 2.2.5 2.2 4 0 3.4.4 4.2 2.6 5.2 2.1 1 3.1.9 6.1-.8 4.6-2.4 8.3-7.5 13.5-18.4 14-29.3 28.4-57.6 42.2-82.7l7.8-14.2h13.3l13.3.1 2.7 7.6c7.7 22.2 14.6 40.4 21.6 57.2 2.2 5.2 6.1 15.6 8.7 23 3.6 10.1 5.4 13.8 7.1 14.6 1.2.6 3.2 3.1 4.4 5.5 5 10 10.5 4.4 20.7-21.2 6.1-15.3 19.7-43.2 20.5-41.9.3.5 1.5 4.3 2.6 8.3 4.7 16.8 11.4 29.9 23.8 46.3 5.3 7.1 5.7 7.4 9.7 7.4 4.7 0 7.5-2.9 12.8-13.1 8.7-17 18.7-30.3 34-45.3 12.4-12.1 19.7-17.7 34.8-26.8 11.9-7.1 13.3-8.7 10.1-11.9-1.1-1.1-10.1 3.2-17.3 8.2-1.4.9-4.3 2.7-6.5 3.9-12.9 7.2-37.5 28.9-48.1 42.5-2.1 2.7-4.2 5.2-4.5 5.5-.3.3-2.7 3.6-5.3 7.5-6.1 9-6.8 9.5-2.6 2 6-11.1 16.2-24.8 26-35 14.3-15 25.5-23.8 46.4-36.3 5.5-3.2 6.6-5.1 4.7-8-.7-1.1-1.8-.9-5.9 1.2-8.3 4.2-26.2 15.4-33.7 21.1-14.1 10.6-33.6 31.6-44 47.2-2.6 4-5.1 7-5.6 6.8-.7-.5-4.1-10.7-14.9-45.2-2.3-7.2-4.8-13.7-5.6-14.4-.8-.6-1.4-.8-1.4-.4 0 1.7-2.9-1.8-3.5-4.3-1.1-4.5-3.2-6.1-6.6-5.2-7.9 2.3-9.6 4.4-17.7 21.3-4.2 8.9-10.6 22.2-14.2 29.5l-6.6 13.3-2.8-7.3c-1.6-4-3.7-9.1-4.6-11.3-3.4-7.5-19-50.4-19-52 0-.2 17.4-.1 38.8.2 21.3.2 54.2.5 73.2.7l34.5.3 5.8-4c3.1-2.2 5.7-4.4 5.7-4.8 0-.5-4.5-.8-9.9-.6-5.5.1-9.9.1-9.8 0 .1 0 3.2-2.3 6.9-5l6.6-4.8-56.1-.2c-30.9 0-66.6-.2-79.4-.3l-23.2-.1-3.1-8.2c-1.8-4.5-4.5-12-6.2-16.7-3-8.6-5.3-12.4-6.9-11.4-.5.3-1.8-1.4-2.8-3.8-2.8-6.5-3.7-6.8-10.1-3.5zm6.1 35.4c3.1 7.9 3.1 8-2 7.8-2.5 0-4.6-.5-4.6-1 0-1.1 4.6-9.5 5.2-9.5.2 0 .8 1.2 1.4 2.7zm-46.8 17c-5.1.2-13.6.2-19 0-5.4-.1-1.2-.3 9.2-.3 10.5 0 14.9.2 9.8.3zm52.7.1c0 .8-16.9.6-17.8-.3-.3-.3 3.6-.5 8.6-.5 5.1 0 9.2.3 9.2.8zm84.8.1c12.2.1 22.2.4 22.2.8 0 .5-4.6.7-10.2.6-5.7-.1-25-.2-43-.3-18.1-.1-32.8-.5-32.8-.9 0-.3 9.3-.5 20.8-.4 11.4.1 30.7.2 43 .2zm25.2.5c0 .3-.4.8-1 1.1-.5.3-1 .1-1-.4 0-.6.5-1.1 1-1.1.6 0 1 .2 1 .4zm15 .6c0 .3-3.1.5-7 .5-3.8 0-7-.3-7-.6 0-.4 3.2-.6 7-.6 3.9.1 7 .4 7 .7zm10-.2c0 .5-.7.9-1.5.9s-1.2-.4-.9-.9c.3-.4.9-.8 1.5-.8.5 0 .9.4.9.8zm4 0c0 .5-.7.9-1.5.9s-1.2-.4-.9-.9c.3-.4.9-.8 1.5-.8.5 0 .9.4.9.8zm4-.4c0 .3-.4.8-1 1.1-.5.3-1 .1-1-.4 0-.6.5-1.1 1-1.1.6 0 1 .2 1 .4zm4 0c0 .3-.4.8-1 1.1-.5.3-1 .1-1-.4 0-.6.5-1.1 1-1.1.6 0 1 .2 1 .4zm4 0c0 .3-.4.8-1 1.1-.5.3-1 .1-1-.4 0-.6.5-1.1 1-1.1.6 0 1 .2 1 .4zm-193.7 22.1c-.3.9-.8 1.4-1 1.1-.3-.3-.2-.9.2-1.5.9-1.6 1.5-1.3.8.4z"/></svg>